<mxGraphModel><root><mxCell id="0"/><mxCell id="1" parent="0"/><mxCell id="2" value="Automation Process" style="whiteSpace=wrap;strokeWidth=2;" vertex="1" parent="1"><mxGeometry x="50" y="1266" width="523" height="208" as="geometry"/></mxCell><mxCell id="3" value="Start" style="whiteSpace=wrap;strokeWidth=2;" vertex="1" parent="1"><mxGeometry x="386" y="8" width="95" height="54" as="geometry"/></mxCell><mxCell id="4" value="Role" style="rhombus;strokeWidth=2;whiteSpace=wrap;" vertex="1" parent="1"><mxGeometry x="391" y="239" width="85" height="85" as="geometry"/></mxCell><mxCell id="5" value="Update Rates" style="whiteSpace=wrap;strokeWidth=2;" vertex="1" parent="1"><mxGeometry x="476" y="397" width="156" height="54" as="geometry"/></mxCell><mxCell id="6" value="Receive Dealer Request" style="whiteSpace=wrap;strokeWidth=2;" vertex="1" parent="1"><mxGeometry x="198" y="397" width="228" height="54" as="geometry"/></mxCell><mxCell id="7" value="Request Type" style="rhombus;strokeWidth=2;whiteSpace=wrap;" vertex="1" parent="1"><mxGeometry x="238" y="501" width="148" height="148" as="geometry"/></mxCell><mxCell id="8" value="Dealer Sends Text Request" style="whiteSpace=wrap;strokeWidth=2;" vertex="1" parent="1"><mxGeometry x="14" y="1034" width="248" height="54" as="geometry"/></mxCell><mxCell id="9" value="Dealer Calls Distributor" style="whiteSpace=wrap;strokeWidth=2;" vertex="1" parent="1"><mxGeometry x="382" y="722" width="227" height="54" as="geometry"/></mxCell><mxCell id="10" value="Automation Responds with Rates" style="whiteSpace=wrap;strokeWidth=2;" vertex="1" parent="1"><mxGeometry x="8" y="1138" width="260" height="78" as="geometry"/></mxCell><mxCell id="11" value="Agent Receives Call" style="whiteSpace=wrap;strokeWidth=2;" vertex="1" parent="1"><mxGeometry x="395" y="826" width="200" height="54" as="geometry"/></mxCell><mxCell id="12" value="Agent Confirms Request" style="whiteSpace=wrap;strokeWidth=2;" vertex="1" parent="1"><mxGeometry x="380" y="930" width="231" height="54" as="geometry"/></mxCell><mxCell id="13" value="Agent Checks Rates" style="whiteSpace=wrap;strokeWidth=2;" vertex="1" parent="1"><mxGeometry x="395" y="1034" width="200" height="54" as="geometry"/></mxCell><mxCell id="14" value="Agent Responds with Rates" style="whiteSpace=wrap;strokeWidth=2;" vertex="1" parent="1"><mxGeometry x="369" y="1150" width="252" height="54" as="geometry"/></mxCell><mxCell id="15" value="Update Rates in System" style="whiteSpace=wrap;strokeWidth=2;" vertex="1" parent="1"><mxGeometry x="440" y="548" width="229" height="54" as="geometry"/></mxCell><mxCell id="16" value="Automation" style="whiteSpace=wrap;strokeWidth=2;" vertex="1" parent="1"><mxGeometry x="241" y="1291" width="143" height="54" as="geometry"/></mxCell><mxCell id="17" value="Fetch Current Rates" style="whiteSpace=wrap;strokeWidth=2;" vertex="1" parent="1"><mxGeometry x="85" y="1395" width="204" height="54" as="geometry"/></mxCell><mxCell id="18" value="Respond with Rates" style="whiteSpace=wrap;strokeWidth=2;" vertex="1" parent="1"><mxGeometry x="338" y="1395" width="199" height="54" as="geometry"/></mxCell><mxCell id="19" value="Repeat Process" style="whiteSpace=wrap;strokeWidth=2;" vertex="1" parent="1"><mxGeometry x="409" y="135" width="167" height="54" as="geometry"/></mxCell><mxCell id="20" value="" style="curved=1;startArrow=none;endArrow=block;exitX=0.23;exitY=1;entryX=0.06;entryY=0;" edge="1" parent="1" source="3" target="4"><mxGeometry relative="1" as="geometry"><Array as="points"><mxPoint x="374" y="99"/><mxPoint x="374" y="214"/></Array></mxGeometry></mxCell><mxCell id="21" value="Customer" style="curved=1;startArrow=none;endArrow=block;exitX=0.99;exitY=0.82;entryX=0.5;entryY=-0.01;" edge="1" parent="1" source="4" target="5"><mxGeometry relative="1" as="geometry"><Array as="points"><mxPoint x="554" y="360"/></Array></mxGeometry></mxCell><mxCell id="22" value="Distributor" style="curved=1;startArrow=none;endArrow=block;exitX=0;exitY=0.82;entryX=0.5;entryY=-0.01;" edge="1" parent="1" source="4" target="6"><mxGeometry relative="1" as="geometry"><Array as="points"><mxPoint x="312" y="360"/></Array></mxGeometry></mxCell><mxCell id="23" value="" style="curved=1;startArrow=none;endArrow=block;exitX=0.5;exitY=0.99;entryX=0.5;entryY=0;" edge="1" parent="1" source="6" target="7"><mxGeometry relative="1" as="geometry"><Array as="points"/></mxGeometry></mxCell><mxCell id="24" value="Text" style="curved=1;startArrow=none;endArrow=block;exitX=0;exitY=0.82;entryX=0.5;entryY=0;" edge="1" parent="1" source="7" target="8"><mxGeometry relative="1" as="geometry"><Array as="points"><mxPoint x="138" y="685"/></Array></mxGeometry></mxCell><mxCell id="25" value="Phone Call" style="curved=1;startArrow=none;endArrow=block;exitX=1;exitY=0.8;entryX=0.5;entryY=0;" edge="1" parent="1" source="7" target="9"><mxGeometry relative="1" as="geometry"><Array as="points"><mxPoint x="495" y="685"/></Array></mxGeometry></mxCell><mxCell id="26" value="" style="curved=1;startArrow=none;endArrow=block;exitX=0.5;exitY=1;entryX=0.5;entryY=0;" edge="1" parent="1" source="8" target="10"><mxGeometry relative="1" as="geometry"><Array as="points"/></mxGeometry></mxCell><mxCell id="27" value="" style="curved=1;startArrow=none;endArrow=block;exitX=0.5;exitY=1;entryX=0.5;entryY=0;" edge="1" parent="1" source="9" target="11"><mxGeometry relative="1" as="geometry"><Array as="points"/></mxGeometry></mxCell><mxCell id="28" value="" style="curved=1;startArrow=none;endArrow=block;exitX=0.5;exitY=1;entryX=0.5;entryY=0;" edge="1" parent="1" source="11" target="12"><mxGeometry relative="1" as="geometry"><Array as="points"/></mxGeometry></mxCell><mxCell id="29" value="" style="curved=1;startArrow=none;endArrow=block;exitX=0.5;exitY=1;entryX=0.5;entryY=0;" edge="1" parent="1" source="12" target="13"><mxGeometry relative="1" as="geometry"><Array as="points"/></mxGeometry></mxCell><mxCell id="30" value="" style="curved=1;startArrow=none;endArrow=block;exitX=0.5;exitY=1;entryX=0.5;entryY=0;" edge="1" parent="1" source="13" target="14"><mxGeometry relative="1" as="geometry"><Array as="points"/></mxGeometry></mxCell><mxCell id="31" value="" style="curved=1;startArrow=none;endArrow=block;exitX=0.5;exitY=0.99;entryX=0.5;entryY=0;" edge="1" parent="1" source="5" target="15"><mxGeometry relative="1" as="geometry"><Array as="points"/></mxGeometry></mxCell><mxCell id="32" value="" style="curved=1;startArrow=none;endArrow=block;exitX=0.04;exitY=1;entryX=0.5;entryY=0;" edge="1" parent="1" source="16" target="17"><mxGeometry relative="1" as="geometry"><Array as="points"><mxPoint x="186" y="1370"/></Array></mxGeometry></mxCell><mxCell id="33" value="" style="curved=1;startArrow=none;endArrow=block;exitX=0.95;exitY=1;entryX=0.5;entryY=0;" edge="1" parent="1" source="16" target="18"><mxGeometry relative="1" as="geometry"><Array as="points"><mxPoint x="438" y="1370"/></Array></mxGeometry></mxCell><mxCell id="34" value="" style="curved=1;startArrow=none;endArrow=block;exitX=0.5;exitY=1;entryX=0;entryY=0.1;" edge="1" parent="1" source="10" target="16"><mxGeometry relative="1" as="geometry"><Array as="points"><mxPoint x="138" y="1266"/></Array></mxGeometry></mxCell><mxCell id="35" value="" style="curved=1;startArrow=none;endArrow=block;exitX=0.5;exitY=1;entryX=1;entryY=0.12;" edge="1" parent="1" source="14" target="16"><mxGeometry relative="1" as="geometry"><Array as="points"><mxPoint x="495" y="1266"/></Array></mxGeometry></mxCell><mxCell id="36" value="Daily" style="curved=1;startArrow=none;endArrow=block;exitX=0.76;exitY=1;entryX=0.5;entryY=0;" edge="1" parent="1" source="3" target="19"><mxGeometry relative="1" as="geometry"><Array as="points"><mxPoint x="492" y="99"/></Array></mxGeometry></mxCell><mxCell id="37" value="" style="curved=1;startArrow=none;endArrow=block;exitX=0.5;exitY=1;entryX=0.93;entryY=0;" edge="1" parent="1" source="19" target="4"><mxGeometry relative="1" as="geometry"><Array as="points"><mxPoint x="492" y="214"/></Array></mxGeometry></mxCell></root></mxGraphModel>